<svg xmlns="http://www.w3.org/2000/svg" xmlns:xlink="http://www.w3.org/1999/xlink" width="64" zoomAndPan="magnify" viewBox="0 0 48 48" height="64" preserveAspectRatio="xMidYMid meet" version="1.0"><defs><clipPath id="fc7de8beb8"><path d="M 5.191406 18.953125 L 42.660156 18.953125 L 42.660156 24.832031 L 5.191406 24.832031 Z M 5.191406 18.953125 " clip-rule="nonzero"/></clipPath></defs><g clip-path="url(#fc7de8beb8)"><path fill="#ffc30f" d="M 11.320312 21.316406 L 9.941406 22.652344 C 9.914062 22.679688 9.898438 22.71875 9.90625 22.757812 L 10.234375 24.640625 C 10.25 24.742188 10.144531 24.816406 10.054688 24.769531 L 8.351562 23.878906 C 8.3125 23.863281 8.273438 23.863281 8.234375 23.878906 L 6.53125 24.769531 C 6.441406 24.816406 6.335938 24.742188 6.351562 24.640625 L 6.679688 22.757812 C 6.6875 22.71875 6.671875 22.679688 6.644531 22.652344 L 5.265625 21.316406 C 5.191406 21.246094 5.230469 21.125 5.332031 21.109375 L 7.238281 20.835938 C 7.277344 20.828125 7.3125 20.804688 7.332031 20.769531 L 8.183594 19.054688 C 8.226562 18.964844 8.359375 18.964844 8.402344 19.054688 L 9.253906 20.769531 C 9.273438 20.804688 9.308594 20.828125 9.347656 20.835938 L 11.253906 21.109375 C 11.355469 21.125 11.394531 21.246094 11.320312 21.316406 Z M 19.070312 21.109375 L 17.164062 20.835938 C 17.125 20.828125 17.089844 20.804688 17.070312 20.769531 L 16.21875 19.054688 C 16.175781 18.964844 16.046875 18.964844 16 19.054688 L 15.148438 20.769531 C 15.128906 20.804688 15.09375 20.828125 15.054688 20.835938 L 13.148438 21.109375 C 13.046875 21.125 13.007812 21.246094 13.082031 21.316406 L 14.460938 22.652344 C 14.488281 22.679688 14.503906 22.71875 14.496094 22.757812 L 14.167969 24.640625 C 14.152344 24.742188 14.257812 24.816406 14.347656 24.769531 L 16.050781 23.878906 C 16.089844 23.863281 16.128906 23.863281 16.167969 23.878906 L 17.871094 24.769531 C 17.960938 24.816406 18.066406 24.742188 18.050781 24.640625 L 17.722656 22.757812 C 17.714844 22.71875 17.730469 22.679688 17.757812 22.652344 L 19.136719 21.316406 C 19.210938 21.246094 19.171875 21.125 19.070312 21.109375 Z M 26.886719 21.109375 L 24.980469 20.835938 C 24.941406 20.828125 24.90625 20.804688 24.890625 20.769531 L 24.035156 19.054688 C 23.992188 18.964844 23.863281 18.964844 23.816406 19.054688 L 22.964844 20.769531 C 22.945312 20.804688 22.910156 20.828125 22.871094 20.835938 L 20.964844 21.109375 C 20.863281 21.125 20.824219 21.246094 20.898438 21.316406 L 22.277344 22.652344 C 22.304688 22.679688 22.320312 22.71875 22.3125 22.757812 L 21.988281 24.640625 C 21.96875 24.742188 22.074219 24.816406 22.164062 24.769531 L 23.871094 23.878906 C 23.90625 23.863281 23.949219 23.863281 23.984375 23.878906 L 25.6875 24.769531 C 25.777344 24.816406 25.882812 24.742188 25.867188 24.640625 L 25.539062 22.757812 C 25.53125 22.71875 25.546875 22.679688 25.574219 22.652344 L 26.953125 21.316406 C 27.027344 21.246094 26.988281 21.125 26.886719 21.109375 Z M 34.703125 21.109375 L 32.796875 20.835938 C 32.757812 20.828125 32.722656 20.804688 32.707031 20.769531 L 31.851562 19.054688 C 31.808594 18.964844 31.679688 18.964844 31.632812 19.054688 L 30.78125 20.769531 C 30.761719 20.804688 30.730469 20.828125 30.6875 20.835938 L 28.78125 21.109375 C 28.683594 21.125 28.640625 21.246094 28.714844 21.316406 L 30.09375 22.652344 C 30.125 22.679688 30.136719 22.71875 30.128906 22.757812 L 29.804688 24.640625 C 29.785156 24.742188 29.890625 24.816406 29.980469 24.769531 L 31.6875 23.878906 C 31.722656 23.863281 31.765625 23.863281 31.800781 23.878906 L 33.503906 24.769531 C 33.59375 24.816406 33.699219 24.742188 33.683594 24.640625 L 33.355469 22.757812 C 33.351562 22.71875 33.363281 22.679688 33.390625 22.652344 L 34.773438 21.316406 C 34.84375 21.246094 34.804688 21.125 34.703125 21.109375 Z M 42.589844 21.316406 C 42.660156 21.246094 42.621094 21.125 42.523438 21.109375 L 40.613281 20.835938 C 40.574219 20.828125 40.539062 20.804688 40.523438 20.769531 L 39.667969 19.054688 C 39.625 18.964844 39.496094 18.964844 39.449219 19.054688 L 38.597656 20.769531 C 38.582031 20.804688 38.546875 20.828125 38.507812 20.835938 L 36.597656 21.109375 C 36.5 21.125 36.457031 21.246094 36.53125 21.316406 L 37.910156 22.652344 C 37.941406 22.679688 37.953125 22.71875 37.945312 22.757812 L 37.621094 24.640625 C 37.601562 24.742188 37.707031 24.816406 37.796875 24.769531 L 39.503906 23.878906 C 39.539062 23.863281 39.582031 23.863281 39.617188 23.878906 L 41.324219 24.769531 C 41.414062 24.816406 41.515625 24.742188 41.5 24.640625 L 41.171875 22.757812 C 41.167969 22.71875 41.179688 22.679688 41.207031 22.652344 Z M 42.589844 21.316406 " fill-opacity="1" fill-rule="nonzero"/></g></svg>