<svg xmlns="http://www.w3.org/2000/svg" xmlns:xlink="http://www.w3.org/1999/xlink" width="64" zoomAndPan="magnify" viewBox="0 0 48 48" height="64" preserveAspectRatio="xMidYMid meet" version="1.0"><defs><clipPath id="8b2ec5069e"><path d="M 6.148438 6.613281 L 42 6.613281 L 42 42.613281 L 6.148438 42.613281 Z M 6.148438 6.613281 " clip-rule="nonzero"/></clipPath></defs><g clip-path="url(#8b2ec5069e)"><path fill="#ffffff" d="M 33.007812 6.613281 L 14.984375 6.613281 C 10.109375 6.613281 6.144531 10.578125 6.144531 15.453125 L 6.144531 33.476562 C 6.144531 38.347656 10.109375 42.316406 14.984375 42.316406 L 33.007812 42.316406 C 37.882812 42.316406 41.847656 38.347656 41.847656 33.476562 L 41.847656 15.453125 C 41.847656 10.578125 37.882812 6.613281 33.007812 6.613281 Z M 40.171875 33.476562 C 40.171875 37.425781 36.957031 40.640625 33.007812 40.640625 L 14.984375 40.640625 C 11.03125 40.640625 7.816406 37.425781 7.816406 33.476562 L 7.816406 15.453125 C 7.816406 11.5 11.03125 8.285156 14.984375 8.285156 L 33.007812 8.285156 C 36.957031 8.285156 40.171875 11.5 40.171875 15.453125 Z M 40.171875 33.476562 " fill-opacity="1" fill-rule="nonzero"/></g><path fill="#ffffff" d="M 23.996094 13.824219 C 18.128906 13.824219 13.355469 18.597656 13.355469 24.464844 C 13.355469 30.328125 18.128906 35.101562 23.996094 35.101562 C 29.863281 35.101562 34.636719 30.328125 34.636719 24.464844 C 34.636719 18.597656 29.863281 13.824219 23.996094 13.824219 Z M 23.996094 33.429688 C 19.054688 33.429688 15.03125 29.40625 15.03125 24.464844 C 15.03125 19.519531 19.054688 15.496094 23.996094 15.496094 C 28.9375 15.496094 32.960938 19.519531 32.960938 24.464844 C 32.960938 29.40625 28.9375 33.429688 23.996094 33.429688 Z M 23.996094 33.429688 " fill-opacity="1" fill-rule="nonzero"/><path fill="#ffffff" d="M 35.667969 12.183594 C 35.667969 12.371094 35.632812 12.550781 35.5625 12.726562 C 35.488281 12.902344 35.386719 13.054688 35.253906 13.1875 C 35.121094 13.320312 34.964844 13.421875 34.792969 13.496094 C 34.617188 13.566406 34.4375 13.605469 34.25 13.605469 C 34.058594 13.605469 33.878906 13.566406 33.703125 13.496094 C 33.53125 13.421875 33.375 13.320312 33.242188 13.1875 C 33.109375 13.054688 33.007812 12.902344 32.9375 12.726562 C 32.863281 12.550781 32.828125 12.371094 32.828125 12.183594 C 32.828125 11.996094 32.863281 11.8125 32.9375 11.640625 C 33.007812 11.464844 33.109375 11.3125 33.242188 11.179688 C 33.375 11.042969 33.53125 10.941406 33.703125 10.871094 C 33.878906 10.796875 34.058594 10.761719 34.25 10.761719 C 34.4375 10.761719 34.617188 10.796875 34.792969 10.871094 C 34.964844 10.941406 35.121094 11.042969 35.253906 11.179688 C 35.386719 11.3125 35.488281 11.464844 35.5625 11.640625 C 35.632812 11.8125 35.667969 11.996094 35.667969 12.183594 Z M 35.667969 12.183594 " fill-opacity="1" fill-rule="nonzero"/></svg>