<svg xmlns="http://www.w3.org/2000/svg" xmlns:xlink="http://www.w3.org/1999/xlink" width="64" zoomAndPan="magnify" viewBox="0 0 48 48" height="64" preserveAspectRatio="xMidYMid meet" version="1.0"><defs><clipPath id="44c642f840"><path d="M 5.496094 5.945312 L 42.230469 5.945312 L 42.230469 40.476562 L 5.496094 40.476562 Z M 5.496094 5.945312 " clip-rule="nonzero"/></clipPath></defs><g clip-path="url(#44c642f840)"><path fill="#f4c01e" d="M 23.863281 5.945312 L 28.59375 16.457031 C 28.777344 16.859375 29.0625 17.210938 29.425781 17.46875 C 29.785156 17.730469 30.210938 17.890625 30.65625 17.9375 L 42.234375 19.136719 L 33.578125 26.828125 C 33.246094 27.125 33 27.503906 32.859375 27.921875 C 32.722656 28.34375 32.699219 28.792969 32.792969 29.222656 L 35.214844 40.476562 L 25.136719 34.71875 C 24.75 34.5 24.3125 34.382812 23.863281 34.382812 C 23.417969 34.382812 22.976562 34.5 22.589844 34.71875 L 12.511719 40.476562 L 14.9375 29.222656 C 15.03125 28.792969 15.003906 28.34375 14.867188 27.921875 C 14.730469 27.503906 14.480469 27.125 14.148438 26.828125 L 5.496094 19.136719 L 17.074219 17.9375 C 17.519531 17.890625 17.941406 17.730469 18.304688 17.46875 C 18.664062 17.210938 18.953125 16.859375 19.132812 16.457031 Z M 23.863281 5.945312 " fill-opacity="1" fill-rule="evenodd"/></g></svg>